<svg width="100" height="50" viewBox="0 0 100 50" fill="none" xmlns="http://www.w3.org/2000/svg">
<path d="M1.36313 38.9428C7.27876 44.0168 13.9834 49.7682 26.9524 49.7682C39.9217 49.768 46.6268 44.0168 52.5426 38.9428C58.1372 34.1443 62.9688 30 73.0465 30C83.1245 30 87.9561 34.1443 93.5504 38.9428C95.1881 40.3473 97.6542 40.1586 99.0586 38.5211C100.463 36.8834 100.274 34.4174 98.6368 33.0129C92.721 27.9389 86.0159 22.1875 73.0465 22.1875C60.0772 22.1875 53.3721 27.9387 47.4563 33.0129C41.8618 37.8113 37.0301 41.9557 26.9524 41.9557C16.8749 41.9557 12.0438 37.8115 6.44965 33.0129C4.81215 31.6084 2.34614 31.7969 0.94145 33.4346C-0.463238 35.0721 -0.274371 37.5383 1.36313 38.9428Z" fill="#5DEE9F"/>
<path d="M1.36313 17.5769C7.27856 22.6512 13.9832 28.4023 26.9524 28.4023C39.9217 28.4023 46.6268 22.6512 52.5426 17.5769C58.1372 12.7785 62.9686 8.63416 73.0465 8.63416C83.1241 8.63416 87.9557 12.7783 93.5504 17.5769C95.1881 18.9818 97.6539 18.7926 99.0584 17.1549C100.463 15.5174 100.274 13.051 98.6364 11.6467C92.7206 6.57244 86.0155 0.821655 73.0465 0.821655C60.0772 0.821655 53.3721 6.57283 47.4563 11.647C41.8618 16.4455 37.0301 20.5898 26.9524 20.5898C16.875 20.5898 12.0438 16.4457 6.44965 11.647C4.81215 10.2424 2.34594 10.431 0.94145 12.0687C-0.463238 13.7062 -0.274371 16.1724 1.36313 17.5769Z" fill="#6875E5"/>
</svg>
