<svg width="59" height="48" viewBox="0 0 59 48" fill="none" xmlns="http://www.w3.org/2000/svg">
<path d="M5.95719 25.0455C8.23608 22.9582 10.8665 21.2907 13.7266 20.1203C14.9191 19.6331 16.5542 19.3564 17.2692 20.4273C17.7297 21.114 17.5451 22.043 17.2531 22.8166C16.4496 24.9494 14.991 26.7623 13.494 28.4823C9.58783 32.9762 5.28907 37.1113 1 41.2392L52.9693 3.60745C54.5992 2.42713 56.3314 1.20642 58.3329 1" stroke="#282323" stroke-width="1.3" stroke-miterlimit="10"/>
<path d="M26.4788 27.2616C25.3992 28.2035 24.6856 29.4955 24.4631 30.9109C24.4227 31.1714 24.4013 31.4437 24.4845 31.6937C24.6296 32.1296 25.084 32.4147 25.5421 32.4507C26.0001 32.4866 26.453 32.3101 26.8347 32.0548C27.584 31.5551 28.0942 30.7771 28.5817 30.0198C29.4575 28.6593 30.3357 27.2762 30.8374 25.738C31.1557 24.7624 31.314 23.6908 30.9989 22.7148C31.047 24.1965 31.0963 25.6858 31.3912 27.1384C32.0088 30.1813 33.6654 32.8983 35.3345 35.5166C35.572 35.8886 35.9553 36.3148 36.3698 36.1629C35.3934 36.1027 34.4712 35.7129 33.5826 35.3037C32.6939 34.8945 31.8052 34.4555 30.8406 34.2858C29.876 34.1161 28.8092 34.2523 28.0667 34.8889L28.0962 34.1578" stroke="#282323" stroke-width="1.3" stroke-miterlimit="10"/>
<path d="M6.17756 24.6387C5.97892 24.4697 5.74786 24.3429 5.49854 24.2663" stroke="#282323" stroke-width="1.3" stroke-miterlimit="10"/>
<path d="M41.8111 24.6869C41.7133 24.7293 41.6495 24.7628 41.5247 24.8286C41.0634 25.0734 40.0325 25.6313 39.0566 26.7231C38.5569 27.2822 37.8852 28.0311 37.5293 29.2381C37.3327 29.908 37.2616 30.6085 37.3197 31.3043C37.3911 32.1582 37.4469 32.8203 37.8888 33.2505C38.9338 34.2672 41.3373 33.2064 41.7812 33.0109C42.3508 32.7597 43.5626 32.1465 44.5357 30.8252C44.9679 30.2386 45.6853 29.2643 45.7334 27.861C45.7455 27.508 45.8142 25.4418 44.446 24.6869C43.6361 24.2413 42.541 24.373 41.8111 24.6869Z" stroke="#282323" stroke-width="1.3" stroke-miterlimit="10"/>
<path d="M45.0959 30.1013C44.9849 32.4397 45.2247 34.7816 45.8072 37.0491C46.2152 38.635 46.7892 40.1772 47.1402 41.7772C47.3598 42.781 47.4902 43.8023 47.53 44.829C47.551 45.3756 47.5074 46.0061 47.0703 46.3353C46.5383 46.7365 45.7838 46.444 45.192 46.1386C41.4224 44.192 37.6552 42.0653 33.491 41.2553" stroke="#282323" stroke-width="1.3" stroke-miterlimit="10"/>
<path d="M49.7478 29.4546C50.4046 29.4546 50.937 28.9222 50.937 28.2654C50.937 27.6086 50.4046 27.0762 49.7478 27.0762C49.091 27.0762 48.5586 27.6086 48.5586 28.2654C48.5586 28.9222 49.091 29.4546 49.7478 29.4546Z" fill="#282323"/>
<path d="M33.9822 41.2982C33.8735 41.6108 33.717 41.9046 33.5181 42.1691" stroke="#282323" stroke-width="1.3" stroke-miterlimit="10"/>
</svg>
