<svg width="48" height="39" viewBox="0 0 48 39" fill="none" xmlns="http://www.w3.org/2000/svg">
<path d="M4.97731 20.2925C6.80573 18.6177 8.91619 17.2799 11.211 16.3408C12.1677 15.9499 13.4797 15.7279 14.0533 16.5871C14.4228 17.1381 14.2747 17.8835 14.0403 18.5041C13.3957 20.2154 12.2254 21.6699 11.0243 23.0499C7.89029 26.6555 4.44126 29.9733 1 33.2852L42.6966 3.09204C44.0044 2.14503 45.3941 1.16561 47 1" stroke="#282323" stroke-miterlimit="10"/>
<path d="M21.4425 22.0705C20.5762 22.8262 20.0037 23.8628 19.8252 24.9984C19.7928 25.2074 19.7756 25.4259 19.8424 25.6265C19.9588 25.9762 20.3234 26.205 20.6909 26.2339C21.0584 26.2627 21.4217 26.1211 21.728 25.9162C22.3292 25.5153 22.7385 24.8911 23.1297 24.2834C23.8324 23.1919 24.5369 22.0822 24.9395 20.848C25.1949 20.0653 25.3219 19.2055 25.0691 18.4225C25.1077 19.6113 25.1472 20.8062 25.3838 21.9717C25.8794 24.4131 27.2085 26.593 28.5476 28.6938C28.7382 28.9922 29.0458 29.3342 29.3783 29.2123C28.595 29.164 27.8551 28.8513 27.142 28.523C26.429 28.1946 25.716 27.8424 24.9421 27.7062C24.1681 27.5701 23.3122 27.6793 22.7165 28.1901L22.7402 27.6035" stroke="#282323" stroke-miterlimit="10"/>
<path d="M5.15418 19.9661C4.9948 19.8305 4.80942 19.7288 4.60938 19.6673" stroke="#282323" stroke-miterlimit="10"/>
<path d="M33.7441 20.0047C33.6657 20.0387 33.6145 20.0656 33.5143 20.1185C33.1442 20.3149 32.3171 20.7625 31.5341 21.6385C31.1332 22.087 30.5942 22.6879 30.3087 23.6563C30.151 24.1938 30.0939 24.7558 30.1405 25.3141C30.1978 25.9992 30.2426 26.5304 30.5971 26.8756C31.4356 27.6913 33.364 26.8402 33.7201 26.6834C34.1771 26.4818 35.1494 25.9898 35.9301 24.9297C36.2769 24.4591 36.8525 23.6774 36.8911 22.5515C36.9008 22.2682 36.9559 20.6105 35.8582 20.0047C35.2084 19.6472 34.3298 19.7529 33.7441 20.0047Z" stroke="#282323" stroke-miterlimit="10"/>
<path d="M36.3796 24.3489C36.2906 26.2251 36.4829 28.1041 36.9503 29.9233C37.2776 31.1957 37.7382 32.4331 38.0198 33.7169C38.196 34.5223 38.3006 35.3416 38.3326 36.1654C38.3494 36.6039 38.3144 37.1099 37.9638 37.374C37.5369 37.6958 36.9315 37.4612 36.4567 37.2162C33.4322 35.6543 30.4097 33.948 27.0686 33.2982" stroke="#282323" stroke-miterlimit="10"/>
<path d="M40.1119 23.83C40.6388 23.83 41.066 23.4029 41.066 22.8759C41.066 22.3489 40.6388 21.9218 40.1119 21.9218C39.5849 21.9218 39.1577 22.3489 39.1577 22.8759C39.1577 23.4029 39.5849 23.83 40.1119 23.83Z" fill="#282323"/>
<path d="M27.4627 33.3325C27.3755 33.5833 27.2499 33.8191 27.0903 34.0313" stroke="#282323" stroke-miterlimit="10"/>
</svg>
