<svg width="41" height="40" viewBox="0 0 41 40" fill="none" xmlns="http://www.w3.org/2000/svg">
<path d="M16.2083 14.3642H15.6462H11.899V17.7991H15.9273C16.6455 17.7991 17.27 17.6118 17.27 15.9567C17.27 14.3017 16.2083 14.3642 16.2083 14.3642Z" fill="#5DEE9F"/>
<path d="M16.2083 20.2972H11.899V24.6689H15.6774C15.7399 24.6689 15.8336 24.6689 15.9585 24.6689C16.583 24.6689 17.7696 24.4191 17.7696 22.5455C17.8008 20.3284 16.2083 20.2972 16.2083 20.2972Z" fill="#5DEE9F"/>
<path d="M30.4476 0H10.8374C5.404 0 0.969849 4.43416 0.969849 9.86756V29.509C0.969849 34.9112 5.404 39.3453 10.8374 39.3453H30.4788C35.9122 39.3453 40.3464 34.9112 40.3464 29.4778V9.86756C40.3152 4.43416 35.881 0 30.4476 0ZM24.0774 12.4906H30.635V14.0519H24.0774V12.4906ZM21.0172 22.7641C21.0172 27.6354 16.2084 27.7915 16.2084 27.7915H11.7742H11.6493H8.4642V11.5538H11.6181H11.743H16.1771C18.5816 11.5538 20.4864 12.9278 20.4864 15.8006C20.4864 18.6734 18.1756 18.8295 18.1756 18.8295C21.2358 18.7983 21.0172 22.7641 21.0172 22.7641ZM32.7896 22.483H24.8893C24.8893 25.6057 27.5748 25.3559 27.5748 25.3559C30.1041 25.3559 30.0104 23.7321 30.0104 23.7321H32.6959C32.6959 28.1038 27.4811 27.9164 27.4811 27.9164C21.2358 27.9164 21.6418 21.7648 21.6418 21.7648C21.6418 21.7648 21.6418 15.582 27.4811 15.582C33.6327 15.5508 32.7896 22.483 32.7896 22.483Z" fill="#5DEE9F"/>
<path d="M27.5435 17.8303C25.2015 17.8303 24.858 20.2972 24.858 20.2972H29.8543C29.8543 20.2972 29.8855 17.8303 27.5435 17.8303Z" fill="#5DEE9F"/>
</svg>
