<svg width="60" height="53" viewBox="0 0 60 53" fill="none" xmlns="http://www.w3.org/2000/svg">
<path d="M53.1653 52.896H6.62804C2.97358 52.896 0 49.923 0 46.2679V6.76964C0 3.11518 2.97358 0.141602 6.62804 0.141602H53.1653C56.8198 0.141602 59.7934 3.11518 59.7934 6.76964V46.2679C59.7934 49.923 56.8198 52.896 53.1653 52.896ZM6.62804 2.11591C4.0621 2.11591 1.97431 4.2037 1.97431 6.76964V46.2679C1.97431 48.8339 4.0621 50.9217 6.62804 50.9217H53.1653C55.7313 50.9217 57.8191 48.8339 57.8191 46.2679V6.76964C57.8191 4.2037 55.7313 2.11591 53.1653 2.11591H6.62804Z" fill="#6876E4"/>
<path d="M1 15.1416H59V45.1416C59 48.4553 56.3137 51.1416 53 51.1416H7C3.68629 51.1416 1 48.4553 1 45.1416V15.1416Z" fill="#6876E4"/>
<path d="M58.8062 15.9487H0.987155C0.441796 15.9487 0 15.5069 0 14.9616C0 14.4168 0.441796 13.9744 0.987155 13.9744H58.8062C59.3516 13.9744 59.7934 14.4168 59.7934 14.9616C59.7934 15.5069 59.3516 15.9487 58.8062 15.9487Z" fill="#6876E4"/>
<path d="M16.8666 11.2251C15.1446 11.2251 13.7427 9.82309 13.7427 8.10108C13.7427 6.37852 15.1446 4.97711 16.8666 4.97711C18.5892 4.97711 19.9906 6.37852 19.9906 8.10108C19.9906 9.82309 18.5892 11.2251 16.8666 11.2251ZM16.8666 6.95142C16.2331 6.95142 15.717 7.46703 15.717 8.10108C15.717 8.73513 16.2331 9.25074 16.8666 9.25074C17.5007 9.25074 18.0163 8.73513 18.0163 8.10108C18.0163 7.46703 17.5007 6.95142 16.8666 6.95142Z" fill="#6876E4"/>
<path d="M7.26801 11.1947C5.54545 11.1947 4.14404 9.79331 4.14404 8.07075C4.14404 6.34818 5.54545 4.94678 7.26801 4.94678C8.99058 4.94678 10.392 6.34818 10.392 8.07075C10.392 9.79331 8.99058 11.1947 7.26801 11.1947ZM7.26801 6.92109C6.63452 6.92109 6.11835 7.43725 6.11835 8.07075C6.11835 8.7048 6.63452 9.22041 7.26801 9.22041C7.90206 9.22041 8.41767 8.7048 8.41767 8.07075C8.41767 7.43725 7.90206 6.92109 7.26801 6.92109Z" fill="#6876E4"/>
<path d="M26.4647 11.2548C24.7427 11.2548 23.3413 9.85337 23.3413 8.1308C23.3413 6.40879 24.7427 5.00739 26.4647 5.00739C28.1873 5.00739 29.5887 6.40879 29.5887 8.1308C29.5887 9.85337 28.1873 11.2548 26.4647 11.2548ZM26.4647 6.98114C25.8312 6.98114 25.3156 7.49676 25.3156 8.1308C25.3156 8.76485 25.8312 9.28047 26.4647 9.28047C27.0988 9.28047 27.6144 8.76485 27.6144 8.1308C27.6144 7.49676 27.0988 6.98114 26.4647 6.98114Z" fill="#6876E4"/>
<path d="M23.3739 38.5184C23.1481 38.5184 22.9205 38.4407 22.7349 38.2826L16.347 32.8433C16.1267 32.6555 16 32.3812 16 32.0914C16 31.8022 16.1273 31.5279 16.347 31.34L22.7349 25.9007C23.1497 25.5471 23.7727 25.5972 24.1264 26.012C24.4795 26.4274 24.4299 27.0504 24.0146 27.4035L18.5098 32.0914L24.0146 36.7793C24.4299 37.1329 24.4795 37.756 24.1264 38.1708C23.9308 38.4005 23.6532 38.5184 23.3739 38.5184Z" fill="white"/>
<path d="M35.9842 38.5184C35.7049 38.5184 35.4273 38.4005 35.2323 38.1708C34.8786 37.756 34.9288 37.1329 35.3436 36.7793L40.8484 32.0914L35.3436 27.4035C34.9288 27.0504 34.8786 26.4274 35.2323 26.012C35.5854 25.5972 36.209 25.5471 36.6232 25.9007L43.0111 31.34C43.2314 31.5279 43.3581 31.8022 43.3581 32.0914C43.3581 32.3812 43.2314 32.6555 43.0111 32.8433L36.6232 38.2826C36.4376 38.4407 36.2101 38.5184 35.9842 38.5184Z" fill="white"/>
<path d="M27.4179 42.5981C27.3502 42.5981 27.2819 42.591 27.213 42.5766C26.6798 42.4643 26.3382 41.9404 26.4506 41.4071L30.4317 22.5052C30.5441 21.972 31.0674 21.6305 31.6012 21.7428C32.1344 21.8552 32.476 22.3785 32.3636 22.9123L28.3825 41.8142C28.2844 42.2792 27.8746 42.5981 27.4179 42.5981Z" fill="white"/>
</svg>
