<svg width="38" height="38" viewBox="0 0 38 38" fill="none" xmlns="http://www.w3.org/2000/svg">
<path d="M13.7061 30.5535C13.4419 30.6027 13.3264 30.7267 13.3595 30.9244C13.3925 31.1222 13.5409 31.1884 13.8048 31.1222C14.069 31.0564 14.1843 30.9407 14.1511 30.7759C14.1184 30.5946 13.9699 30.5203 13.7061 30.5535Z" fill="#5DEE9F"/>
<path d="M12.2959 30.7516C12.0319 30.7516 11.9 30.8418 11.9 31.0236C11.9 31.238 12.0403 31.3284 12.3205 31.2955C12.5845 31.2955 12.7165 31.2048 12.7165 31.0236C12.7165 30.8095 12.5763 30.7184 12.2959 30.7516Z" fill="#5DEE9F"/>
<path d="M10.3662 30.6768C10.3003 30.8583 10.4076 30.9817 10.6878 31.048C10.9352 31.1465 11.0919 31.0972 11.1578 30.8995C11.2073 30.7183 11.1001 30.5866 10.8362 30.5036C10.5887 30.4379 10.4321 30.4948 10.3662 30.6768Z" fill="#5DEE9F"/>
<path d="M35.9095 2.09031C34.5158 0.696857 32.838 0 30.8749 0H7.12497C5.16247 0 3.48411 0.696857 2.09031 2.09031C0.696857 3.48402 0 5.16239 0 7.12497V30.8753C0 32.838 0.696857 34.5161 2.09031 35.9096C3.48402 37.3033 5.16247 38.0002 7.12497 38.0002H12.6666C13.0292 38.0002 13.3015 37.9877 13.4829 37.9634C13.6642 37.9385 13.8455 37.8312 14.027 37.6413C14.2086 37.4518 14.2991 37.1755 14.2991 36.8128C14.2991 36.7636 14.2947 36.2022 14.2866 35.1303C14.2782 34.0579 14.2741 33.2087 14.2741 32.5818L13.7051 32.6809C13.3423 32.7467 12.8846 32.7757 12.332 32.7674C11.7797 32.7591 11.2064 32.7016 10.6127 32.5943C10.0187 32.4869 9.4664 32.2396 8.95507 31.8524C8.44399 31.4644 8.08118 30.9574 7.86672 30.3309L7.61924 29.7615C7.45434 29.3825 7.19473 28.9617 6.84006 28.5003C6.48539 28.0383 6.12674 27.7249 5.76393 27.56L5.59071 27.4362C5.47538 27.3538 5.36819 27.2544 5.26914 27.1391C5.17027 27.0234 5.0961 26.9078 5.04662 26.7928C4.99714 26.6771 5.03822 26.5822 5.17027 26.5078C5.30233 26.4337 5.54123 26.3969 5.88775 26.3969L6.38236 26.471C6.71233 26.5369 7.12029 26.7346 7.60711 27.0647C8.09357 27.3945 8.49347 27.8232 8.80689 28.3508C9.18643 29.0273 9.64369 29.5423 10.18 29.897C10.7158 30.252 11.2561 30.4293 11.8003 30.4293C12.3445 30.4293 12.8145 30.388 13.2105 30.3059C13.606 30.2232 13.9772 30.0992 14.3237 29.9343C14.4721 28.8294 14.8763 27.9795 15.5358 27.3859C14.5958 27.2868 13.7506 27.1386 12.9999 26.9405C12.2497 26.7424 11.4744 26.421 10.6746 25.9755C9.87445 25.5301 9.21069 24.978 8.68289 24.3179C8.15518 23.6578 7.72209 22.7919 7.38424 21.7202C7.04621 20.6479 6.87715 19.4108 6.87715 18.009C6.87715 16.0135 7.52886 14.3144 8.83176 12.9126C8.22138 11.4118 8.27901 9.72974 9.0048 7.86585C9.48312 7.71733 10.1925 7.82876 11.1325 8.19989C12.0726 8.57128 12.761 8.88886 13.1982 9.15237C13.6355 9.41597 13.9858 9.63884 14.2498 9.82046C15.7839 9.39162 17.3672 9.17724 18.9999 9.17724C20.6325 9.17724 22.216 9.39162 23.7502 9.82046L24.6903 9.22672C25.3338 8.83072 26.0923 8.46791 26.9666 8.1382C27.8407 7.8084 28.5086 7.71759 28.9706 7.86611C29.7125 9.73 29.7789 11.4121 29.1681 12.9128C30.471 14.3148 31.1229 16.0137 31.1229 18.0093C31.1229 19.4113 30.9538 20.6526 30.6158 21.7326C30.278 22.8129 29.8412 23.6791 29.3047 24.3305C28.7689 24.9821 28.1008 25.5301 27.301 25.9757C26.501 26.4208 25.7258 26.7428 24.9752 26.9403C24.2247 27.1384 23.3796 27.2873 22.4395 27.3863C23.2966 28.1282 23.7254 29.2989 23.7254 30.899V36.812C23.7254 37.0925 23.7663 37.3191 23.8487 37.4923C23.9318 37.6654 24.0635 37.7847 24.2448 37.8511C24.427 37.917 24.587 37.9581 24.7276 37.9745C24.8681 37.9911 25.0698 37.9994 25.3337 37.9994H30.8754C32.8379 37.9994 34.5163 37.3025 35.9094 35.9088C37.3031 34.5151 38 32.8367 38 30.8742V7.12497C37.9998 5.16239 37.303 3.48376 35.9095 2.09031Z" fill="#5DEE9F"/>
<path d="M7.52075 27.6589C7.40541 27.7411 7.42188 27.873 7.57031 28.0545C7.73547 28.2193 7.86727 28.2442 7.96631 28.1286C8.08165 28.0464 8.06518 27.9145 7.91649 27.7327C7.75168 27.5845 7.61979 27.5596 7.52075 27.6589Z" fill="#5DEE9F"/>
<path d="M6.70458 27.0404C6.65519 27.1561 6.7129 27.2551 6.8778 27.3372C7.0096 27.42 7.11713 27.4037 7.19937 27.288C7.24876 27.1723 7.19105 27.0733 7.02615 26.9905C6.86125 26.941 6.75406 26.9576 6.70458 27.0404Z" fill="#5DEE9F"/>
<path d="M8.28797 28.6239C8.13936 28.706 8.13936 28.8549 8.28797 29.069C8.43641 29.2837 8.57635 29.3413 8.70849 29.2421C8.85701 29.1265 8.85701 28.9699 8.70849 28.7719C8.57669 28.558 8.43641 28.5079 8.28797 28.6239Z" fill="#5DEE9F"/>
<path d="M9.15396 29.7367C9.00544 29.8689 9.03819 30.025 9.25292 30.207C9.45057 30.4045 9.61556 30.4294 9.74753 30.2806C9.87959 30.149 9.84657 29.9924 9.64857 29.811C9.45092 29.6134 9.28593 29.5884 9.15396 29.7367Z" fill="#5DEE9F"/>
</svg>
