<svg width="40" height="40" viewBox="0 0 40 40" fill="none" xmlns="http://www.w3.org/2000/svg">
<path d="M28.3593 0H11.6106C5.20849 0 0 5.20849 0 11.6106V28.3592C0 34.7614 5.20849 39.9699 11.6106 39.9699H28.3592C34.7614 39.9699 39.9699 34.7614 39.9699 28.3593V11.6106C39.9699 5.20849 34.7614 0 28.3593 0ZM36.8472 28.3592C36.8472 33.0395 33.0395 36.8472 28.3593 36.8472H11.6106C6.93032 36.8472 3.12265 33.0395 3.12265 28.3593V11.6106C3.12265 6.93032 6.93032 3.12265 11.6106 3.12265H28.3592C33.0395 3.12265 36.8472 6.93032 36.8472 11.6106V28.3592Z" fill="#5DEE9F"/>
<path d="M19.9849 9.21179C14.0446 9.21179 9.21179 14.0446 9.21179 19.9849C9.21179 25.9253 14.0446 30.758 19.9849 30.758C25.9253 30.758 30.758 25.9253 30.758 19.9849C30.758 14.0446 25.9253 9.21179 19.9849 9.21179ZM19.9849 27.6354C15.7665 27.6354 12.3344 24.2034 12.3344 19.9849C12.3344 15.7665 15.7665 12.3344 19.9849 12.3344C24.2034 12.3344 27.6354 15.7665 27.6354 19.9849C27.6354 24.2034 24.2034 27.6354 19.9849 27.6354Z" fill="#5DEE9F"/>
<path d="M30.9142 10.617C31.7765 10.617 32.4756 9.91794 32.4756 9.05565C32.4756 8.19335 31.7765 7.49432 30.9142 7.49432C30.0519 7.49432 29.3529 8.19335 29.3529 9.05565C29.3529 9.91794 30.0519 10.617 30.9142 10.617Z" fill="#5DEE9F"/>
</svg>
