<svg width="40" height="40" viewBox="0 0 40 40" fill="none" xmlns="http://www.w3.org/2000/svg">
<rect width="40" height="40" rx="10" fill="#5DEE9F"/>
<path fill-rule="evenodd" clip-rule="evenodd" d="M21.4337 23.9541V27.1908C21.9423 27.4606 22.5439 27.6628 23.2384 27.7977C23.9329 27.9326 24.6648 28 25.4343 28C26.1843 28 26.8966 27.9258 27.5716 27.7775C28.2465 27.6291 28.8383 27.3847 29.3469 27.0441C29.8556 26.7037 30.2582 26.2586 30.5549 25.709C30.8516 25.1594 31 24.4801 31 23.6709C31 23.0843 30.9153 22.5701 30.7457 22.1285C30.5761 21.6868 30.3316 21.294 30.0121 20.9501C29.6926 20.6062 29.3094 20.2977 28.8627 20.0246C28.4161 19.7515 27.9123 19.4936 27.3515 19.2509C26.9407 19.0755 26.5722 18.9053 26.2462 18.7401C25.9201 18.5748 25.643 18.4063 25.4147 18.2344C25.1865 18.0624 25.0104 17.8803 24.8866 17.6881C24.7627 17.4959 24.7007 17.2785 24.7007 17.0357C24.7007 16.8132 24.7561 16.6126 24.867 16.4339C24.9779 16.2552 25.1344 16.1018 25.3365 15.9737C25.5387 15.8456 25.7864 15.7461 26.0799 15.6753C26.3734 15.6045 26.6994 15.5691 27.0581 15.5691C27.3189 15.5691 27.5944 15.5894 27.8846 15.6298C28.1748 15.6703 28.4666 15.7327 28.7601 15.8169C29.0535 15.9012 29.3388 16.0074 29.6159 16.1355C29.8931 16.2637 30.149 16.412 30.3838 16.5806V13.5563C29.9078 13.3675 29.3877 13.2276 28.8236 13.1366C28.2596 13.0455 27.6123 13 26.882 13C26.1386 13 25.4343 13.0826 24.7692 13.2478C24.1041 13.413 23.5188 13.6709 23.0134 14.0216C22.508 14.3722 22.1086 14.8189 21.8152 15.3618C21.5218 15.9046 21.375 16.5536 21.375 17.3088C21.375 18.2731 21.644 19.0958 22.182 19.7768C22.7199 20.4578 23.5367 21.0344 24.6322 21.5064C25.0626 21.6885 25.4637 21.8671 25.8354 22.0425C26.2071 22.2178 26.5283 22.3999 26.7988 22.5887C27.0694 22.7775 27.283 22.9831 27.4396 23.2057C27.5961 23.4282 27.6743 23.681 27.6743 23.9643C27.6743 24.1733 27.6254 24.3672 27.5276 24.5459C27.4298 24.7246 27.2814 24.8796 27.0825 25.0111C26.8836 25.1426 26.6358 25.2454 26.3391 25.3196C26.0424 25.3938 25.6952 25.4309 25.2974 25.4309C24.6192 25.4309 23.9476 25.3078 23.2824 25.0617C22.6173 24.8156 22.001 24.4464 21.4337 23.9541ZM16.1738 15.9794H20.1875V13.3233H9V15.9794H12.9941V27.806H16.1738V15.9794Z" fill="white"/>
</svg>
