<svg width="40" height="40" viewBox="0 0 40 40" fill="none" xmlns="http://www.w3.org/2000/svg">
<rect width="40" height="40" rx="10" fill="#5DEE9F"/>
<path d="M25.1476 14.4113C25.1191 14.4113 25.0912 14.4188 25.0665 14.4329C25.0419 14.4473 25.0215 14.4678 25.0073 14.4925C24.9931 14.5171 24.9855 14.5451 24.9854 14.5735V18.7098C24.9854 18.7504 24.9665 18.7868 24.9313 18.8072C24.9141 18.8172 24.8945 18.8225 24.8745 18.8225C24.8546 18.8225 24.835 18.8172 24.8177 18.8072L24.1419 18.4179C24.0926 18.3894 24.0366 18.3743 23.9796 18.3743C23.9227 18.3743 23.8667 18.3894 23.8174 18.4179L21.1195 19.975C21.0186 20.0332 20.9571 20.1452 20.9571 20.2616V23.3759C20.9571 23.4329 20.972 23.4889 21.0005 23.5383C21.029 23.5877 21.07 23.6286 21.1194 23.6571L23.8174 25.2143C23.8667 25.2429 23.9227 25.258 23.9796 25.258C24.0366 25.258 24.0926 25.2429 24.1419 25.2143L26.8399 23.6571C26.8893 23.6286 26.9303 23.5877 26.9588 23.5383C26.9873 23.4889 27.0022 23.4329 27.0021 23.3759V15.6116C27.0021 15.4935 26.9377 15.3826 26.8346 15.3251L25.2287 14.4274C25.2035 14.4134 25.1755 14.411 25.1476 14.4113ZM7.79131 18.2988C7.73984 18.301 7.69152 18.3099 7.6453 18.3367L4.94733 19.8939C4.8979 19.9223 4.85687 19.9632 4.82839 20.0126C4.79991 20.062 4.78499 20.118 4.78516 20.175L4.79064 24.3547C4.79064 24.4128 4.8207 24.4668 4.8718 24.4952C4.92193 24.5253 4.98408 24.5253 5.03397 24.4952L6.63441 23.576C6.73586 23.5159 6.80199 23.411 6.80199 23.2949V21.343C6.80199 21.2265 6.86323 21.1198 6.96431 21.0619L7.6456 20.6672C7.69483 20.6386 7.75082 20.6236 7.80777 20.6239C7.86475 20.6236 7.92078 20.6385 7.97002 20.6672L8.65101 21.0617C8.75193 21.1195 8.81318 21.2264 8.81318 21.3427V23.2946C8.81318 23.4108 8.88081 23.5163 8.98076 23.5757L10.5812 24.4949C10.6315 24.525 10.6935 24.525 10.7434 24.4949C10.793 24.4663 10.8245 24.4125 10.8245 24.3544L10.8299 20.1749C10.8303 20.1178 10.8154 20.0617 10.7869 20.0123C10.7584 19.9629 10.7173 19.922 10.6678 19.8937L7.96979 18.3366C7.92418 18.3099 7.87563 18.3009 7.82378 18.2988L7.79131 18.2988ZM32.036 18.3367C31.979 18.3366 31.923 18.3515 31.8737 18.38L29.1757 19.9372C29.075 19.9955 29.0133 20.102 29.0133 20.2183V23.3327C29.0133 23.4497 29.0793 23.5558 29.1809 23.6137L31.8573 25.1392C31.9561 25.1956 32.0768 25.1999 32.1763 25.1445L33.7984 24.2415C33.8499 24.2129 33.8847 24.1596 33.8848 24.101C33.885 24.0424 33.8545 23.9896 33.8037 23.9604L31.0893 22.4032C31.0385 22.3742 31.0029 22.3155 31.0029 22.2572V21.2834C31.0029 21.2252 31.039 21.1718 31.0893 21.1428L31.9328 20.6562C31.983 20.6272 32.0446 20.6272 32.0951 20.6562L32.9389 21.1428C32.9636 21.157 32.9842 21.1775 32.9984 21.2022C33.0126 21.2269 33.0201 21.2549 33.02 21.2834V22.0512C33.0199 22.0796 33.0274 22.1077 33.0416 22.1323C33.0559 22.157 33.0764 22.1775 33.1011 22.1917C33.1517 22.2208 33.2129 22.221 33.2634 22.1917L34.88 21.2511C34.9803 21.1927 35.0423 21.0859 35.0423 20.97V20.2185C35.0423 20.1615 35.0273 20.1056 34.9989 20.0562C34.9704 20.0069 34.9294 19.9659 34.8801 19.9374L32.1983 18.3802C32.149 18.3516 32.0929 18.3365 32.036 18.3367ZM23.9688 20.6618C23.9839 20.6617 23.9988 20.6654 24.0121 20.6726L24.9366 21.2078C24.9617 21.2223 24.9799 21.2492 24.9799 21.2781V22.3487C24.9799 22.3777 24.9619 22.4045 24.9366 22.4189L24.0121 22.9542C23.9869 22.9685 23.9562 22.9685 23.9309 22.9542L23.0064 22.4189C22.9812 22.4044 22.9631 22.3776 22.9631 22.3487V21.278C22.9631 21.2489 22.9813 21.2223 23.0064 21.2077L23.9309 20.6725C23.9435 20.6652 23.9547 20.6618 23.9688 20.6618Z" fill="white"/>
<path d="M15.8963 18.3204C15.8393 18.3203 15.7834 18.3352 15.734 18.3637L13.036 19.9155C12.9351 19.9737 12.8738 20.0857 12.8738 20.202V23.3164C12.8736 23.3734 12.8885 23.4294 12.917 23.4788C12.9455 23.5281 12.9865 23.5691 13.036 23.5975L15.734 25.1547C15.7833 25.1833 15.8392 25.1983 15.8962 25.1983C15.9532 25.1983 16.0091 25.1833 16.0584 25.1547L18.7565 23.5975C18.8059 23.569 18.8469 23.528 18.8753 23.4787C18.9038 23.4293 18.9188 23.3733 18.9187 23.3163V20.202C18.9187 20.0855 18.8574 19.9735 18.7564 19.9154L16.0583 18.3636C16.009 18.335 15.953 18.3201 15.896 18.3203L15.8963 18.3204ZM32.0307 21.0996C32.0199 21.0996 32.008 21.0996 31.9982 21.1049L31.4791 21.4077C31.4695 21.4131 31.4614 21.4209 31.4557 21.4304C31.45 21.4399 31.4469 21.4507 31.4467 21.4617V22.0565C31.4467 22.0789 31.4597 22.0994 31.4791 22.1106L31.9982 22.408C32.0071 22.4135 32.0174 22.4165 32.0279 22.4165C32.0384 22.4165 32.0486 22.4135 32.0576 22.408L32.5766 22.1106C32.5958 22.0996 32.6091 22.0789 32.6091 22.0565V21.4617C32.6091 21.4393 32.5959 21.4189 32.5766 21.4076L32.0576 21.1048C32.0479 21.0991 32.0413 21.0995 32.0305 21.0995L32.0307 21.0996Z" fill="white"/>
</svg>
