<svg width="60" height="53" viewBox="0 0 60 53" fill="none" xmlns="http://www.w3.org/2000/svg">
<path d="M53.1653 52.896H6.62804C2.97358 52.896 0 49.923 0 46.2679V6.76964C0 3.11518 2.97358 0.141602 6.62804 0.141602H53.1653C56.8198 0.141602 59.7934 3.11518 59.7934 6.76964V46.2679C59.7934 49.923 56.8198 52.896 53.1653 52.896ZM6.62804 2.11591C4.0621 2.11591 1.97431 4.2037 1.97431 6.76964V46.2679C1.97431 48.8339 4.0621 50.9217 6.62804 50.9217H53.1653C55.7313 50.9217 57.8191 48.8339 57.8191 46.2679V6.76964C57.8191 4.2037 55.7313 2.11591 53.1653 2.11591H6.62804Z" fill="#6876E4"/>
<path d="M1 15.1416H59V45.1416C59 48.4553 56.3137 51.1416 53 51.1416H7C3.68629 51.1416 1 48.4553 1 45.1416V15.1416Z" fill="#6876E4"/>
<path d="M24.8758 23.9506C24.819 23.8622 24.7499 23.7829 24.6712 23.7152C24.6596 23.7065 24.6516 23.6957 24.6408 23.6878C24.6045 23.6646 24.5665 23.6443 24.527 23.6277C24.5122 23.6206 24.501 23.609 24.4854 23.6019L16.3036 20.202C16.1087 20.1215 15.8913 20.1215 15.6964 20.202L7.51456 23.6019C7.49818 23.609 7.48619 23.6218 7.46982 23.6293C7.43146 23.6459 7.39471 23.6658 7.35915 23.6878C7.34837 23.6957 7.34038 23.7065 7.32879 23.7152C7.24849 23.7808 7.17898 23.8605 7.12425 23.9506C7.09868 23.995 7.0771 24.0414 7.05993 24.09C7.04994 24.1128 7.04115 24.1365 7.03356 24.1606C7.01199 24.2357 7.0008 24.3133 7 24.3917V32.8916C7 33.2394 7.20375 33.5523 7.51456 33.6814L15.6964 37.0813C15.7056 37.0813 15.716 37.0813 15.7259 37.0871C15.9021 37.1598 16.0979 37.1598 16.2741 37.0871C16.284 37.083 16.2944 37.0871 16.3036 37.0813L24.4854 33.6814C24.7963 33.5523 25 33.2394 25 32.8916V24.3917C24.9992 24.3133 24.988 24.2357 24.9664 24.1606C24.9589 24.1365 24.9501 24.1128 24.9401 24.09C24.9229 24.0414 24.9013 23.995 24.8758 23.9506ZM16 21.9074L21.9786 24.3917L16 26.8761L10.0214 24.3917L16 21.9074ZM8.63636 25.6472L15.1818 28.3669V35.036L8.63636 32.3163V25.6472ZM16.8182 35.036V28.3669L23.3636 25.6472V32.3163L16.8182 35.036Z" fill="white"/>
<path d="M30.8 29.1416H34.9334V31.2083H30.8V29.1416Z" fill="white"/>
<path d="M37 29.1416H51.4667V31.2083H37V29.1416Z" fill="white"/>
<path d="M30.8 33.275H45.2667V35.3416H30.8V33.275Z" fill="white"/>
<path d="M47.3333 33.275H51.4666V35.3416H47.3333V33.275Z" fill="white"/>
<path d="M30.8 37.4082H37V39.4749H30.8V37.4082Z" fill="white"/>
<path d="M39.0669 37.4082H51.4669V39.4749H39.0669V37.4082Z" fill="white"/>
<path d="M41.1335 41.5416H45.2669V43.6083H41.1335V41.5416Z" fill="white"/>
<path d="M58.8062 15.9487H0.987155C0.441796 15.9487 0 15.5069 0 14.9616C0 14.4168 0.441796 13.9744 0.987155 13.9744H58.8062C59.3516 13.9744 59.7934 14.4168 59.7934 14.9616C59.7934 15.5069 59.3516 15.9487 58.8062 15.9487Z" fill="#6876E4"/>
<path d="M16.8666 11.2251C15.1446 11.2251 13.7427 9.82309 13.7427 8.10108C13.7427 6.37852 15.1446 4.97711 16.8666 4.97711C18.5892 4.97711 19.9906 6.37852 19.9906 8.10108C19.9906 9.82309 18.5892 11.2251 16.8666 11.2251ZM16.8666 6.95142C16.2331 6.95142 15.717 7.46703 15.717 8.10108C15.717 8.73513 16.2331 9.25074 16.8666 9.25074C17.5007 9.25074 18.0163 8.73513 18.0163 8.10108C18.0163 7.46703 17.5007 6.95142 16.8666 6.95142Z" fill="#6876E4"/>
<path d="M7.26801 11.1947C5.54545 11.1947 4.14404 9.79331 4.14404 8.07075C4.14404 6.34818 5.54545 4.94678 7.26801 4.94678C8.99058 4.94678 10.392 6.34818 10.392 8.07075C10.392 9.79331 8.99058 11.1947 7.26801 11.1947ZM7.26801 6.92109C6.63452 6.92109 6.11835 7.43725 6.11835 8.07075C6.11835 8.7048 6.63452 9.22041 7.26801 9.22041C7.90206 9.22041 8.41767 8.7048 8.41767 8.07075C8.41767 7.43725 7.90206 6.92109 7.26801 6.92109Z" fill="#6876E4"/>
<path d="M26.4647 11.2548C24.7427 11.2548 23.3413 9.85337 23.3413 8.1308C23.3413 6.40879 24.7427 5.00739 26.4647 5.00739C28.1873 5.00739 29.5887 6.40879 29.5887 8.1308C29.5887 9.85337 28.1873 11.2548 26.4647 11.2548ZM26.4647 6.98114C25.8312 6.98114 25.3156 7.49676 25.3156 8.1308C25.3156 8.76485 25.8312 9.28047 26.4647 9.28047C27.0988 9.28047 27.6144 8.76485 27.6144 8.1308C27.6144 7.49676 27.0988 6.98114 26.4647 6.98114Z" fill="#6876E4"/>
</svg>
