<svg width="40" height="40" viewBox="0 0 40 40" fill="none" xmlns="http://www.w3.org/2000/svg">
<rect width="40" height="40" rx="10" fill="#5DEE9F"/>
<path d="M19.984 22.2114C21.4017 22.2114 22.551 21.0621 22.551 19.6444C22.551 18.2267 21.4017 17.0774 19.984 17.0774C18.5663 17.0774 17.417 18.2267 17.417 19.6444C17.417 21.0621 18.5663 22.2114 19.984 22.2114Z" fill="white"/>
<path fill-rule="evenodd" clip-rule="evenodd" d="M19.9842 14.4252C23.4307 14.4252 26.6325 14.9197 29.0466 15.7508C31.9552 16.7522 33.7436 18.27 33.7436 19.6444C33.7436 21.0766 31.8483 22.6891 28.7248 23.724C26.3633 24.5064 23.2558 24.9148 19.9842 24.9148C16.6299 24.9148 13.4535 24.5314 11.0655 23.7154C8.04414 22.6827 6.22437 21.0493 6.22437 19.6444C6.22437 18.2812 7.93187 16.7751 10.7996 15.7752C13.2227 14.9304 16.5035 14.4252 19.9837 14.4252H19.9842Z" stroke="white" stroke-width="1.5"/>
<path fill-rule="evenodd" clip-rule="evenodd" d="M15.4405 17.0498C17.1623 14.0642 19.1902 11.5377 21.1162 9.86161C23.4367 7.84218 25.645 7.05131 26.8355 7.73785C28.0763 8.45334 28.5262 10.9008 27.8623 14.1235C27.3609 16.5601 26.1618 19.4559 24.5273 22.2901C22.8516 25.1959 20.9327 27.7559 19.033 29.4165C16.6291 31.5179 14.305 32.2784 13.0879 31.5765C11.9069 30.8959 11.4553 28.6639 12.0219 25.6801C12.5005 23.159 13.7018 20.0646 15.4399 17.0498L15.4405 17.0498Z" stroke="white" stroke-width="1.5"/>
<path fill-rule="evenodd" clip-rule="evenodd" d="M15.4449 22.2977C13.7182 19.3155 12.5426 16.2962 12.0519 13.7906C11.4612 10.7716 11.8789 8.46339 13.0684 7.77486C14.3079 7.05727 16.653 7.88969 19.1134 10.0744C20.9737 11.7261 22.884 14.2107 24.5232 17.0422C26.2038 19.9452 27.4633 22.8862 27.9533 25.3614C28.5734 28.4936 28.0715 30.8868 26.8556 31.5907C25.6758 32.2737 23.5168 31.5506 21.2148 29.5695C19.2697 27.8958 17.1887 25.3095 15.4449 22.2976V22.2977Z" stroke="white" stroke-width="1.5"/>
</svg>
