<svg width="59" height="60" viewBox="0 0 59 60" fill="none" xmlns="http://www.w3.org/2000/svg">
<path d="M8.61278 37.9473C8.27878 38.6135 8.40887 39.4188 8.93508 39.9454L9.35775 40.3681C10.579 38.9209 12.0023 37.3504 13.7286 35.6246C13.8505 35.5026 13.9761 35.4436 14.0986 35.3311L11.3793 32.6114C9.79843 35.4706 8.87656 37.4242 8.61278 37.9473Z" fill="#6876E4"/>
<path d="M23.5062 45.4024C21.7759 47.1327 20.2095 48.5588 18.7704 49.7809L19.343 50.3534C19.8741 50.8846 20.6871 51.0124 21.3555 50.6685C22.2508 50.2072 23.6588 49.5446 26.6477 47.88L23.8002 45.0324C23.6877 45.1553 23.6287 45.2804 23.5062 45.4024Z" fill="#6876E4"/>
<path d="M22.5849 36.5482C21.3358 35.2991 17.8229 36.419 16.1727 38.0688C10.6523 43.5892 8.15898 47.5031 7.0395 49.8141C6.71855 50.4763 6.85224 51.269 7.37259 51.7893C7.89385 52.311 8.68789 52.4434 9.35048 52.1224C11.6097 51.0254 15.4759 48.5438 21.0621 42.9581C22.8766 41.1427 23.7719 37.7357 22.5862 36.5496L22.5849 36.5482Z" fill="#6876E4"/>
<path d="M5.39522 23.155L0.506309 28.0439C-0.0464554 28.5967 -0.159889 29.4524 0.231728 30.1303C0.613891 30.7992 1.41423 31.14 2.17586 30.936C4.81814 30.2275 7.14309 29.9282 8.70865 30.3297C10.9359 26.3699 13.3293 22.7247 15.864 19.4135C14.3979 18.4736 9.55311 18.9971 5.39522 23.155Z" fill="#6876E4"/>
<path d="M29.2573 58.9559C29.923 59.2926 30.7292 59.1626 31.2563 58.635L36.1457 53.7461C39.9308 49.96 40.597 45.0752 39.7382 43.5262C36.0453 46.3094 32.3042 48.6596 28.8139 50.6271C29.0547 51.987 28.8944 53.3063 28.325 57.1595C28.2138 57.9053 28.5992 58.6269 29.2573 58.9559Z" fill="#6876E4"/>
<path d="M34.3168 17.4806C32.2953 19.5026 32.2953 22.7917 34.3168 24.8137C36.3388 26.8358 39.6284 26.8358 41.6504 24.8137C43.6724 22.7917 43.6724 19.5026 41.6504 17.4806C39.6284 15.4586 36.3388 15.4586 34.3168 17.4806Z" fill="#6876E4"/>
<path d="M58.8981 1.82765C58.836 0.97285 58.1554 0.297198 57.3033 0.233279C53.0581 -0.0863159 48.8295 0.43584 44.6847 1.70342C44.9966 4.55097 46.4695 7.63258 48.9839 10.147C51.5285 12.6912 54.6939 14.1636 57.5923 14.4391C58.7086 10.5269 59.238 6.3371 58.8981 1.82765Z" fill="#6876E4"/>
<path d="M46.5397 12.5917C43.6634 9.71534 41.9069 6.26552 41.3434 2.90662C30.9637 7.16353 21.0275 16.4597 13.1758 29.519L17.0766 33.4199C19.7419 32.3377 22.9775 32.0519 25.0296 34.1036C27.0845 36.1589 26.7932 39.3931 25.7116 42.0548L29.7407 46.0839C39.7886 40.0283 51.4867 30.4877 56.4611 17.7944C53.0203 17.2744 49.4629 15.5149 46.5397 12.5917ZM44.0946 27.2584C40.7253 30.6277 35.2423 30.6277 31.8726 27.2584C28.5028 23.8887 28.5028 18.4052 31.8726 15.0359C35.2423 11.6667 40.7253 11.6667 44.0946 15.0359C47.4643 18.4056 47.4643 23.8887 44.0946 27.2584Z" fill="#6876E4"/>
</svg>
