<svg width="20" height="20" viewBox="0 0 20 20" fill="none" xmlns="http://www.w3.org/2000/svg">
<path d="M10 20C15.5228 20 20 15.5228 20 10C20 4.47715 15.5228 0 10 0C4.47715 0 0 4.47715 0 10C0 15.5228 4.47715 20 10 20Z" fill="white" fill-opacity="0.75"/>
<path d="M13.585 8.26075C10.6966 8.26075 10.6929 11.1382 10.6929 11.153C10.6929 11.153 10.495 14.034 13.585 14.034C13.585 14.034 16.1619 14.1806 16.1619 12.029H14.8387C14.8387 12.029 14.8825 12.839 13.629 12.839C13.629 12.839 12.3058 12.9271 12.3058 11.5304H16.2059C16.2059 11.5304 16.6348 8.26075 13.585 8.26075ZM12.291 10.5223C12.291 10.5223 12.4523 9.364 13.6144 9.364C14.78 9.364 14.7617 10.5223 14.7617 10.5223H12.291ZM8.98499 9.78202C8.98499 9.78202 10.1323 9.6977 10.1323 8.34881C10.1323 7.00367 9.19391 6.34375 8.0026 6.34375H4.08392V13.8763H8.00225C8.00225 13.8763 10.3959 13.9497 10.3959 11.6514C10.3961 11.6514 10.4988 9.78202 8.98499 9.78202ZM5.81054 7.68159H8.00242C8.00242 7.68159 8.53399 7.68159 8.53399 8.46593C8.53399 9.25027 8.2224 9.364 7.86677 9.364H5.81054V7.68159ZM7.89262 12.5384H5.81054V10.5223H8.00242C8.00242 10.5223 8.798 10.515 8.79425 11.5596C8.79425 12.4395 8.20421 12.5311 7.89262 12.5384ZM11.9648 6.78726V7.71474H15.0733V6.78726H11.9648Z" fill="#2B2626"/>
</svg>
