<svg width="29" height="39" viewBox="0 0 29 39" fill="none" xmlns="http://www.w3.org/2000/svg">
<path d="M29 8.09204L26.7215 34.5146C23.345 37.1344 19.105 38.6935 14.5 38.6935C9.89504 38.6935 5.65501 37.1344 2.27847 34.5146L0 8.09204H29Z" fill="#FCA250"/>
<path d="M14.4998 10.5762V38.1709L24.0321 35.4797L26.1586 10.5762H14.4998Z" fill="#DD9553"/>
<path d="M22.9226 21.3698H16.0475L23.2315 17.7137L23.5419 14.0383H5.45764L5.77408 17.7855H13.0335L6.06823 21.2682L6.39231 25.1069H18.8172L18.4099 29.6787L14.4998 30.7377L10.4268 29.5973L10.3249 26.7462H6.53077L7.00539 32.367L14.4998 34.4849L21.9941 32.367L22.9228 21.3692L22.9226 21.3698Z" fill="white"/>
<path d="M7.433 4.0187V1.41194H11.1802V0H6.07532V5.43064H11.1802V4.0187H7.433Z" fill="white"/>
<path d="M13.3728 2.12473V1.47298H17.0997V1.41194V0H11.9948V3.36695H15.6537V4.0187H11.9948V5.43064H17.0997V4.0187V2.12473H13.3728Z" fill="white"/>
<path d="M19.1972 2.12473V1.47298H22.9241V1.41194V0H17.8192V3.36695H21.4781V4.0187H17.8192V5.43064H22.9241V4.0187V2.12473H19.1972Z" fill="white"/>
</svg>
