<svg width="20" height="20" viewBox="0 0 20 20" fill="none" xmlns="http://www.w3.org/2000/svg">
<g opacity="0.75">
<path d="M18.432 4.91999C17.5487 3.40644 16.3504 2.20816 14.837 1.32488C13.3234 0.44155 11.6709 0 9.8785 0C8.08631 0 6.43332 0.441685 4.91999 1.32488C3.40644 2.20811 2.20825 3.40644 1.32488 4.91999C0.441641 6.4335 0 8.08626 0 9.87823C0 12.0308 0.628019 13.9664 1.88437 15.6856C3.14059 17.405 4.76344 18.5947 6.75278 19.2549C6.98434 19.2979 7.15577 19.2677 7.26722 19.165C7.37873 19.0622 7.43441 18.9335 7.43441 18.7793C7.43441 18.7536 7.4322 18.5221 7.42792 18.0847C7.42351 17.6473 7.42144 17.2657 7.42144 16.9402L7.12558 16.9913C6.93695 17.0259 6.69899 17.0405 6.41169 17.0364C6.12454 17.0324 5.82643 17.0023 5.51778 16.9463C5.209 16.8909 4.92179 16.7622 4.65594 16.5607C4.39023 16.3592 4.2016 16.0954 4.0901 15.7698L3.96147 15.4738C3.87574 15.2768 3.74077 15.0579 3.55637 14.8179C3.37197 14.5777 3.18551 14.4149 2.99688 14.3292L2.90682 14.2647C2.84681 14.2219 2.79113 14.1702 2.73963 14.1102C2.68818 14.0503 2.64966 13.9903 2.62394 13.9302C2.59817 13.87 2.61952 13.8207 2.68823 13.782C2.75693 13.7433 2.88109 13.7245 3.06125 13.7245L3.31841 13.7629C3.48992 13.7973 3.70207 13.9 3.95512 14.0716C4.20804 14.2431 4.41596 14.466 4.57891 14.7402C4.77623 15.0919 5.01397 15.3599 5.29279 15.5443C5.57139 15.7287 5.85229 15.8207 6.13521 15.8207C6.41814 15.8207 6.6625 15.7993 6.86838 15.7566C7.07404 15.7137 7.267 15.6492 7.44716 15.5636C7.52433 14.9888 7.73445 14.5472 8.07734 14.2386C7.58862 14.1872 7.14923 14.1099 6.75895 14.007C6.3689 13.904 5.96582 13.7369 5.54999 13.5052C5.13394 13.2737 4.7888 12.9863 4.51448 12.6435C4.24012 12.3005 4.01495 11.8501 3.83929 11.2929C3.66355 10.7354 3.57565 10.0924 3.57565 9.36352C3.57565 8.32575 3.91444 7.44265 4.59188 6.71372C4.27454 5.93352 4.3045 5.05889 4.68185 4.08992C4.93053 4.01265 5.29933 4.07063 5.78805 4.2635C6.27685 4.45646 6.63474 4.62175 6.86207 4.7588C7.08941 4.8958 7.27155 5.0119 7.40878 5.10605C8.20641 4.88318 9.02955 4.77173 9.87841 4.77173C10.7273 4.77173 11.5506 4.88318 12.3483 5.10605L12.837 4.7975C13.1713 4.59161 13.566 4.40293 14.0202 4.23142C14.4747 4.06 14.8222 4.01279 15.0624 4.09005C15.4481 5.05907 15.4825 5.93365 15.1651 6.71385C15.8425 7.44279 16.1814 8.32611 16.1814 9.36365C16.1814 10.0925 16.0932 10.7376 15.9177 11.2993C15.742 11.8612 15.5149 12.3111 15.2363 12.6499C14.9574 12.9888 14.61 13.2739 14.1942 13.5053C13.7783 13.7369 13.3751 13.904 12.985 14.007C12.5948 14.11 12.1554 14.1874 11.6667 14.2388C12.1124 14.6245 12.3353 15.2334 12.3353 16.0652V18.7789C12.3353 18.9331 12.389 19.0618 12.4963 19.1647C12.6034 19.2673 12.7727 19.2976 13.0043 19.2545C14.9939 18.5944 16.6167 17.4046 17.8729 15.6853C19.1289 13.9661 19.7572 12.0304 19.7572 9.87787C19.7567 8.08612 19.3149 6.4335 18.432 4.91999Z" fill="white"/>
</g>
</svg>
