<svg width="30" height="41" viewBox="0 0 30 41" fill="none" xmlns="http://www.w3.org/2000/svg">
<path d="M30 8.3053L27.636 35.7198C24.1327 38.438 19.7335 40.0556 14.9556 40.0556C10.2209 40.0556 5.85801 38.4667 2.36991 35.7925L0 8.3053H30Z" fill="#FCA250"/>
<path d="M14.9998 10.8755V39.422L24.861 36.6381L27.0608 10.8755H14.9998Z" fill="#DD9553"/>
<path d="M5.64575 14.4572L6.61276 25.9078H19.466L19.0454 30.6378L15 31.7334L10.7867 30.5531L10.6809 27.604H6.75617L7.24748 33.4182L15 35.6091L22.7525 33.4182L23.7133 22.0417H10.1775L9.84153 18.3339L9.84145 18.3338L24.0333 18.2594L24.3542 14.4572H5.64575Z" fill="white"/>
<path d="M6.47532 0V1.96726H4.59566V0H2.84705V5.63921H4.59566V3.80323H6.47532V5.63921H8.22394V0H6.47532Z" fill="white"/>
<path d="M14.4316 0H9.05457V1.96726H10.8032V5.68305H12.683V1.96726H14.4316V0Z" fill="white"/>
<path d="M24.4424 3.89066V0.0438232H22.5626V3.89066V5.68312H24.4424H27.1526V3.89066H24.4424Z" fill="white"/>
<path d="M19.7211 0.0438232L18.4097 2.05468L17.0982 0.0438232H15.2185V5.68312H17.0982V2.88523L18.4097 4.89625L19.7211 2.88523V5.68312H21.6009V0.0438232H19.7211Z" fill="white"/>
</svg>
