<svg width="20" height="20" viewBox="0 0 20 20" fill="none" xmlns="http://www.w3.org/2000/svg">
<g opacity="0.75">
<path d="M11.4861 9.60751C11.4861 10.645 10.645 11.4861 9.60751 11.4861C8.56999 11.4861 7.72894 10.645 7.72894 9.60751C7.72894 8.56999 8.56999 7.72894 9.60751 7.72894C10.645 7.72894 11.4861 8.56999 11.4861 9.60751Z" fill="white"/>
<path d="M13.9457 6.32546C13.8566 6.08383 13.7143 5.86512 13.5295 5.6856C13.3499 5.50075 13.1314 5.35849 12.8896 5.26932C12.6935 5.19317 12.3989 5.10252 11.8564 5.07782C11.2694 5.05106 11.0935 5.04529 9.6076 5.04529C8.12158 5.04529 7.94561 5.05091 7.35883 5.07767C6.81627 5.10252 6.52155 5.19317 6.32561 5.26932C6.08383 5.35849 5.86512 5.50075 5.68574 5.6856C5.5009 5.86512 5.35864 6.08368 5.26932 6.32546C5.19317 6.52155 5.10252 6.81627 5.07782 7.35883C5.05106 7.94561 5.04529 8.12158 5.04529 9.6076C5.04529 11.0935 5.05106 11.2694 5.07782 11.8564C5.10252 12.3989 5.19317 12.6935 5.26932 12.8896C5.35864 13.1314 5.50075 13.3499 5.6856 13.5295C5.86512 13.7143 6.08368 13.8566 6.32546 13.9457C6.52155 14.022 6.81627 14.1127 7.35883 14.1374C7.94561 14.1641 8.12143 14.1698 9.60745 14.1698C11.0936 14.1698 11.2696 14.1641 11.8562 14.1374C12.3988 14.1127 12.6935 14.022 12.8896 13.9457C13.3749 13.7585 13.7585 13.3749 13.9457 12.8896C14.0219 12.6935 14.1125 12.3989 14.1374 11.8564C14.1641 11.2694 14.1698 11.0935 14.1698 9.6076C14.1698 8.12158 14.1641 7.94561 14.1374 7.35883C14.1127 6.81627 14.022 6.52155 13.9457 6.32546ZM9.6076 12.465C8.0293 12.465 6.74987 11.1857 6.74987 9.60745C6.74987 8.02916 8.0293 6.74987 9.6076 6.74987C11.1857 6.74987 12.4652 8.02916 12.4652 9.60745C12.4652 11.1857 11.1857 12.465 9.6076 12.465ZM12.5782 7.30471C12.2094 7.30471 11.9103 7.0057 11.9103 6.63689C11.9103 6.26809 12.2094 5.96908 12.5782 5.96908C12.947 5.96908 13.246 6.26809 13.246 6.63689C13.2458 7.0057 12.947 7.30471 12.5782 7.30471Z" fill="white"/>
<path d="M9.60753 0C4.30225 0 0 4.30225 0 9.60753C0 14.9128 4.30225 19.2151 9.60753 19.2151C14.9128 19.2151 19.2151 14.9128 19.2151 9.60753C19.2151 4.30225 14.9128 0 9.60753 0ZM15.0911 11.882C15.0644 12.4693 14.971 12.8702 14.8347 13.2212C14.5481 13.9623 13.9623 14.5481 13.2212 14.8347C12.8704 14.971 12.4693 15.0643 11.8822 15.0911C11.2939 15.1179 11.1059 15.1244 9.60768 15.1244C8.10929 15.1244 7.92149 15.1179 7.33305 15.0911C6.74591 15.0643 6.34482 14.971 5.99401 14.8347C5.62575 14.6961 5.29238 14.479 5.01678 14.1983C4.73618 13.9228 4.51907 13.5893 4.38053 13.2212C4.2442 12.8704 4.15081 12.4693 4.12413 11.8822C4.09701 11.2937 4.09071 11.1058 4.09071 9.60753C4.09071 8.10929 4.09701 7.92135 4.12399 7.33305C4.15067 6.74577 4.2439 6.34482 4.38024 5.99386C4.51878 5.62575 4.73604 5.29224 5.01678 5.01678C5.29224 4.73604 5.62575 4.51892 5.99386 4.38039C6.34482 4.24405 6.74577 4.15081 7.33305 4.12399C7.92135 4.09716 8.10929 4.09071 9.60753 4.09071C11.1058 4.09071 11.2937 4.09716 11.882 4.12413C12.4693 4.15081 12.8702 4.24405 13.2212 4.38024C13.5893 4.51878 13.9228 4.73604 14.1984 5.01678C14.479 5.29238 14.6963 5.62575 14.8347 5.99386C14.9712 6.34482 15.0644 6.74577 15.0912 7.33305C15.1181 7.92135 15.1244 8.10929 15.1244 9.60753C15.1244 11.1058 15.1181 11.2937 15.0911 11.882Z" fill="white"/>
</g>
</svg>
