<svg width="29" height="29" viewBox="0 0 29 29" fill="none" xmlns="http://www.w3.org/2000/svg">
<path d="M0 29V0H29V29H0Z" fill="#FCA250"/>
<path d="M18.9612 21.7073C19.5186 22.6128 20.1244 23.4804 21.4076 23.4804C22.4855 23.4804 23.051 22.9447 23.051 22.2036C23.051 21.3166 22.4661 21.0017 21.2804 20.4853L20.6303 20.2082C18.7541 19.4123 17.5063 18.415 17.5063 16.3085C17.5063 14.3671 18.9926 12.8897 21.315 12.8897C22.9688 12.8897 24.157 13.4625 25.0141 14.9624L22.9889 16.2569C22.5435 15.4611 22.0617 15.1477 21.315 15.1477C20.5529 15.1477 20.0704 15.6286 20.0704 16.2569C20.0704 17.0335 20.5538 17.3477 21.6694 17.8286L22.3195 18.1057C24.5308 19.0474 25.7778 20.0092 25.7778 22.1713C25.7778 24.501 23.9379 25.7778 21.4681 25.7778C19.0522 25.7778 17.6803 24.5654 16.9167 23.0647L18.9612 21.7073ZM9.628 21.7734C10.0356 22.5032 10.6551 23.0647 11.546 23.0647C12.3983 23.0647 12.8889 22.728 12.8889 21.4189V12.8889H15.5738V21.8314C15.5738 24.5437 14.0006 25.7778 11.7031 25.7778C9.62719 25.7778 8.12886 24.3713 7.51825 23.0647L9.628 21.7734Z" fill="white"/>
</svg>
