<svg width="20" height="20" viewBox="0 0 20 20" fill="none" xmlns="http://www.w3.org/2000/svg">
<g opacity="0.75">
<path d="M9.88924 19.7785C15.3509 19.7785 19.7785 15.3509 19.7785 9.88924C19.7785 4.42756 15.3509 0 9.88924 0C4.42756 0 0 4.42756 0 9.88924C0 15.3509 4.42756 19.7785 9.88924 19.7785Z" fill="white"/>
<path d="M15.7979 10.685V14.7621H13.4341V10.9582C13.4341 10.0031 13.0928 9.35084 12.237 9.35084C11.5838 9.35084 11.1958 9.78996 11.0245 10.2152C10.9623 10.3671 10.9462 10.5781 10.9462 10.7913V14.7619H8.58224C8.58224 14.7619 8.61398 8.31939 8.58224 7.65251H10.9464V8.65998C10.9416 8.66791 10.9349 8.67566 10.9307 8.68324H10.9464V8.65998C11.2605 8.1766 11.8208 7.48556 13.0768 7.48556C14.632 7.48556 15.7979 8.50167 15.7979 10.685ZM6.10932 4.22552C5.3007 4.22552 4.77167 4.75632 4.77167 5.4537C4.77167 6.13628 5.28536 6.68241 6.07829 6.68241H6.09363C6.91811 6.68241 7.43075 6.13628 7.43075 5.4537C7.41506 4.75632 6.91811 4.22552 6.10932 4.22552ZM4.91217 14.7621H7.27527V7.65251H4.91217V14.7621Z" fill="#2F2A2A"/>
</g>
</svg>
