<svg width="16" height="13" viewBox="0 0 16 13" fill="none" xmlns="http://www.w3.org/2000/svg">
<path d="M14.0468 0.566162H1.95655C0.877301 0.566162 0 1.44346 0 2.52271V10.7859C0 11.8651 0.877301 12.7424 1.95655 12.7424H14.0434C15.1227 12.7424 16 11.8651 16 10.7859V2.52602C16.0033 1.44677 15.126 0.566162 14.0468 0.566162ZM15.1094 10.7859C15.1094 11.3719 14.6327 11.8486 14.0468 11.8486H1.95655C1.37058 11.8486 0.893854 11.3719 0.893854 10.7859V2.52602C0.893854 1.94005 1.37058 1.46333 1.95655 1.46333H14.0434C14.6294 1.46333 15.1061 1.94005 15.1061 2.52602V10.7859H15.1094Z" fill="white"/>
<path d="M10.0906 6.5516L14.0037 3.04239C14.1858 2.87686 14.2023 2.59547 14.0368 2.41007C13.8713 2.22799 13.5899 2.21144 13.4045 2.37697L8.00825 7.22033L6.95549 6.28013C6.95218 6.27682 6.94887 6.27351 6.94887 6.2702C6.9257 6.24703 6.90252 6.22716 6.87604 6.2073L2.59216 2.37366C2.40677 2.20813 2.12537 2.22468 1.95984 2.41007C1.79431 2.59547 1.81086 2.87686 1.99626 3.04239L5.9557 6.58139L2.01281 10.2727C1.83404 10.4415 1.82411 10.7229 1.99294 10.905C2.08233 10.9977 2.20151 11.0474 2.32069 11.0474C2.42994 11.0474 2.53919 11.0076 2.62526 10.9282L6.62774 7.18392L7.71361 8.15392C7.79969 8.23006 7.90562 8.26647 8.01156 8.26647C8.1175 8.26647 8.22675 8.22675 8.30951 8.1506L9.42518 7.15081L13.4045 10.9315C13.4906 11.0142 13.6031 11.054 13.7124 11.054C13.8315 11.054 13.9474 11.0076 14.0368 10.9149C14.2056 10.7362 14.199 10.4515 14.0203 10.2826L10.0906 6.5516Z" fill="white"/>
</svg>
