<svg width="13" height="22" viewBox="0 0 13 22" fill="none" xmlns="http://www.w3.org/2000/svg">
<path d="M8.06663 1.1001H4.39998C4.19759 1.1001 4.03333 1.26437 4.03333 1.46675C4.03333 1.66913 4.19759 1.8334 4.39998 1.8334H8.06663C8.26901 1.8334 8.43328 1.66913 8.43328 1.46675C8.43328 1.26437 8.26901 1.1001 8.06663 1.1001Z" fill="white"/>
<path d="M10.6333 1.1001H10.2667C10.0643 1.1001 9.90002 1.26437 9.90002 1.46675C9.90002 1.66913 10.0643 1.8334 10.2667 1.8334H10.6333C10.8357 1.8334 11 1.66913 11 1.46675C11 1.26437 10.8357 1.1001 10.6333 1.1001Z" fill="white"/>
<path d="M6.68876 18.7H5.77834C5.22065 18.7 4.76672 19.1539 4.76672 19.7116V19.8887C4.76672 20.4464 5.22065 20.9 5.77799 20.9H6.68841C7.24611 20.9 7.70003 20.4464 7.70003 19.8887V19.7116C7.70003 19.1539 7.24611 18.7 6.68876 18.7ZM6.96672 19.8887C6.96672 20.042 6.84207 20.1666 6.6888 20.1666H5.77834C5.62472 20.1666 5.50003 20.042 5.50003 19.8887V19.7116C5.50003 19.558 5.62468 19.4333 5.77834 19.4333H6.68841C6.84207 19.4333 6.96672 19.5579 6.96672 19.7116V19.8887Z" fill="white"/>
<path d="M11.1415 0H1.3255C0.594731 0 0 0.59473 0 1.3255V20.6745C0 21.4053 0.594731 22 1.3255 22H11.1412C11.8719 22 12.4667 21.4053 12.4667 20.6749V1.3255C12.4667 0.59473 11.872 0 11.1415 0ZM11.7333 20.6745C11.7333 21.0008 11.4679 21.2667 11.1415 21.2667H1.3255C0.998809 21.2667 0.733348 21.0008 0.733348 20.6748V1.3255C0.733348 0.999152 0.998809 0.733348 1.3255 0.733348H11.1412C11.4678 0.733348 11.7333 0.999195 11.7333 1.3255V20.6745H11.7333Z" fill="white"/>
<path d="M12.1 2.19995H0.366653C0.16427 2.19995 0 2.36422 0 2.5666V17.9666C0 18.169 0.16427 18.3333 0.366653 18.3333H12.1C12.3024 18.3333 12.4667 18.169 12.4667 17.9666V2.5666C12.4667 2.36422 12.3024 2.19995 12.1 2.19995ZM11.7333 17.6H0.733305V2.9333H11.7333V17.6Z" fill="white"/>
</svg>
