<svg width="28" height="28" viewBox="0 0 28 28" fill="none" xmlns="http://www.w3.org/2000/svg">
<path d="M27.724 0.071876C27.5534 -0.0254678 27.3437 -0.0238272 27.1747 0.0761416L17.153 6.0023C16.893 6.15603 16.8069 6.49137 16.9606 6.75136C17.1143 7.01129 17.4496 7.09742 17.7096 6.94375L24.9001 2.69185L11.5068 16.5887L4.84538 14.5507L13.5388 9.41004C13.7988 9.25626 13.8849 8.92092 13.7312 8.66093C13.5775 8.401 13.2421 8.31476 12.9821 8.46854L3.22155 14.2402C3.03506 14.3505 2.93121 14.5605 2.95686 14.7757C2.98251 14.9909 3.13273 15.1706 3.33989 15.2339L11.2952 17.6677L14.8049 24.056C14.8086 24.0626 14.8123 24.0682 14.8162 24.0731C14.8748 24.1708 14.9626 24.2506 15.0721 24.2966C15.1406 24.3255 15.2126 24.3395 15.2841 24.3395C15.4243 24.3395 15.5623 24.2856 15.6665 24.1837L19.7021 20.2397L27.293 22.562C27.3455 22.578 27.3994 22.586 27.453 22.586C27.5687 22.586 27.683 22.5492 27.7783 22.4787C27.9177 22.3756 27.9999 22.2124 27.9999 22.0391V0.546892C27.9999 0.350509 27.8946 0.169165 27.724 0.071876ZM14.8347 18.0048C14.7714 18.0963 14.7374 18.2049 14.7374 18.3162V21.6615L12.3409 17.2993L22.9459 6.29564L14.8347 18.0048ZM15.8312 22.4935V19.0554L18.5103 19.8751L15.8312 22.4935ZM26.9062 21.2999L16.1601 18.0123L26.9062 2.49945V21.2999Z" fill="#201B1B"/>
<path d="M8.9918 19.0081C8.77819 18.7945 8.43202 18.7945 8.21836 19.0081L3.11317 24.1133C2.89961 24.3268 2.89961 24.6731 3.11317 24.8867C3.22003 24.9935 3.35997 25.0468 3.49992 25.0468C3.63986 25.0468 3.77981 24.9935 3.88661 24.8866L8.9918 19.7815C9.20536 19.568 9.20536 19.2217 8.9918 19.0081Z" fill="#201B1B"/>
<path d="M2.19137 25.8085C1.97776 25.5951 1.63159 25.5951 1.41798 25.8086L0.160166 27.0664C-0.0533887 27.2799 -0.0533887 27.6262 0.160166 27.8398C0.266971 27.9466 0.406916 28 0.546862 28C0.686807 28 0.826752 27.9465 0.933557 27.8398L2.19137 26.582C2.40492 26.3684 2.40492 26.0221 2.19137 25.8085Z" fill="#201B1B"/>
<path d="M7.80114 27.0343C7.69947 26.9325 7.55838 26.874 7.41455 26.874C7.27012 26.874 7.12963 26.9325 7.02791 27.0343C6.92619 27.136 6.86768 27.2765 6.86768 27.4209C6.86768 27.5647 6.92614 27.7058 7.02791 27.8075C7.12963 27.9093 7.27072 27.9678 7.41455 27.9678C7.55838 27.9678 7.69947 27.9093 7.80114 27.8075C7.90286 27.7058 7.96143 27.5647 7.96143 27.4209C7.96143 27.2765 7.90291 27.136 7.80114 27.0343Z" fill="#201B1B"/>
<path d="M11.8699 22.9653C11.6565 22.7518 11.3103 22.7518 11.0965 22.9653L8.39247 25.6694C8.17891 25.8829 8.17891 26.2292 8.39247 26.4428C8.49927 26.5496 8.63922 26.6029 8.77916 26.6029C8.91911 26.6029 9.05905 26.5495 9.16586 26.4428L11.8699 23.7387C12.0835 23.5252 12.0835 23.1789 11.8699 22.9653Z" fill="#201B1B"/>
<path d="M21.2026 22.7575C20.989 22.544 20.6428 22.544 20.4292 22.7575L17.7178 25.4689C17.5042 25.6825 17.5042 26.0288 17.7178 26.2424C17.8246 26.3491 17.9645 26.4026 18.1045 26.4026C18.2444 26.4026 18.3844 26.3491 18.4912 26.2424L21.2026 23.531C21.4161 23.3174 21.4161 22.9711 21.2026 22.7575Z" fill="#201B1B"/>
<path d="M15.504 7.45442C15.4022 7.3527 15.2611 7.29419 15.1173 7.29419C14.9735 7.29419 14.8324 7.3527 14.7307 7.45442C14.629 7.55614 14.5704 7.69724 14.5704 7.84161C14.5704 7.98544 14.6289 8.12599 14.7307 8.22771C14.8324 8.32997 14.9735 8.38794 15.1173 8.38794C15.2611 8.38794 15.4022 8.32997 15.504 8.22771C15.6056 8.12599 15.6642 7.98544 15.6642 7.84161C15.6642 7.69724 15.6057 7.55614 15.504 7.45442Z" fill="#201B1B"/>
</svg>
