<svg width="48" height="39" viewBox="0 0 48 39" fill="none" xmlns="http://www.w3.org/2000/svg">
<path d="M4.97731 20.2925C6.80573 18.6177 8.91619 17.2799 11.211 16.3408C12.1677 15.9499 13.4797 15.7279 14.0533 16.5871C14.4228 17.1381 14.2747 17.8835 14.0403 18.5041C13.3957 20.2154 12.2254 21.6699 11.0243 23.0499C7.89029 26.6555 4.44126 29.9733 1 33.2852L42.6966 3.09204C44.0044 2.14503 45.3941 1.16561 47 1" stroke="white" stroke-miterlimit="10"/>
<path d="M21.4424 22.0705C20.5761 22.8262 20.0036 23.8628 19.8251 24.9984C19.7927 25.2074 19.7755 25.4259 19.8423 25.6265C19.9586 25.9762 20.3232 26.205 20.6908 26.2339C21.0583 26.2627 21.4216 26.1211 21.7279 25.9162C22.3291 25.5153 22.7384 24.8911 23.1296 24.2834C23.8322 23.1919 24.5368 22.0822 24.9394 20.848C25.1947 20.0653 25.3218 19.2055 25.069 18.4225C25.1076 19.6113 25.1471 20.8062 25.3837 21.9717C25.8792 24.4131 27.2084 26.593 28.5475 28.6938C28.7381 28.9922 29.0457 29.3342 29.3782 29.2123C28.5948 29.164 27.8549 28.8513 27.1419 28.523C26.4289 28.1946 25.7159 27.8424 24.9419 27.7062C24.168 27.5701 23.3121 27.6793 22.7164 28.1901L22.74 27.6035" stroke="white" stroke-miterlimit="10"/>
<path d="M5.1543 19.9661C4.99493 19.8305 4.80954 19.7288 4.6095 19.6673" stroke="white" stroke-miterlimit="10"/>
<path d="M33.7441 20.0047C33.6657 20.0387 33.6145 20.0656 33.5143 20.1185C33.1442 20.3149 32.3171 20.7625 31.5341 21.6385C31.1332 22.087 30.5942 22.6879 30.3087 23.6563C30.151 24.1938 30.0939 24.7558 30.1405 25.3141C30.1978 25.9992 30.2426 26.5304 30.5971 26.8756C31.4356 27.6913 33.364 26.8402 33.7201 26.6834C34.1771 26.4818 35.1494 25.9898 35.9301 24.9297C36.2769 24.4591 36.8525 23.6774 36.8911 22.5515C36.9008 22.2682 36.9559 20.6105 35.8582 20.0047C35.2084 19.6472 34.3298 19.7529 33.7441 20.0047Z" stroke="white" stroke-miterlimit="10"/>
<path d="M36.3797 24.3489C36.2907 26.2251 36.4831 28.1041 36.9504 29.9233C37.2778 31.1957 37.7383 32.4331 38.0199 33.7169C38.1961 34.5223 38.3008 35.3416 38.3327 36.1654C38.3496 36.6039 38.3145 37.1099 37.9639 37.374C37.537 37.6958 36.9316 37.4612 36.4568 37.2162C33.4324 35.6543 30.4098 33.948 27.0687 33.2982" stroke="white" stroke-miterlimit="10"/>
<path d="M40.112 23.83C40.6389 23.83 41.0661 23.4029 41.0661 22.8759C41.0661 22.3489 40.6389 21.9218 40.112 21.9218C39.585 21.9218 39.1578 22.3489 39.1578 22.8759C39.1578 23.4029 39.585 23.83 40.112 23.83Z" fill="white"/>
<path d="M27.4628 33.3325C27.3757 33.5833 27.25 33.8191 27.0905 34.0313" stroke="white" stroke-miterlimit="10"/>
</svg>
